# xmcd
#
# Track frame offsets: 
#        150
#        10455
#        21375
#        31417
#        42897
#        63582
#        74922
#        83497
#        92792
#        104177
#        118352
#        130737
#        150470
#        167117
#        175327
#
# Disc length: 2455 seconds
#
# Revision: 0
# Processed by: cddbd v1.5.1PL2 Copyright (c) Steve Scherf et al.
# Submitted via: ExactAudioCopy v0.95a5
#
DISCID=d609950f
DTITLE=Fats Domino - Blueberry Hill
DYEAR=1999
DGENRE=
TTITLE0=My Girl Josephine (Hello Josephine)
TTITLE1=The Fat Man
TTITLE2=I'm Gonna Be A Wheel Someday
TTITLE3=Blue Monday
TTITLE4=Jambalay (On The Bayou)
TTITLE5=Blueberry Hill
TTITLE6=I'm Ready
TTITLE7=I Want To Walk You Home
TTITLE8=Ain't That A Shame
TTITLE9=I'm In Love Again
TTITLE10=I'm Walking
TTITLE11=Let The Four Winds Blow
TTITLE12=Shake Rattle And Roll
TTITLE13=Be My Guest
TTITLE14=Red Sails In The Sunset
EXTD=
EXTT0=
EXTT1=
EXTT2=
EXTT3=
EXTT4=
EXTT5=
EXTT6=
EXTT7=
EXTT8=
EXTT9=
EXTT10=
EXTT11=
EXTT12=
EXTT13=
EXTT14=
PLAYORDER=
